<svg width="172" height="48" viewBox="0 0 172 48" fill="none" xmlns="http://www.w3.org/2000/svg">
<g id="Layer_1" clip-path="url(#clip0_725_1957)">
<g id="Group">
<path id="Vector" d="M45.9161 0H23.7104V47.7204H45.9161V0Z" fill="#4D8AC8"/>
<path id="Vector_2" d="M46.1497 47.8488L-0.000488281 0.132263V47.7203L46.1497 47.8488Z" fill="#C71F45"/>
</g>
<path id="Vector_3" d="M50.9502 23.709C50.9502 8.51905 59.9379 0 73.2011 0C86.4643 0 95.4519 8.59086 95.4519 23.709C95.4519 38.8271 86.4643 47.845 73.2011 47.845C59.9379 47.845 50.9502 38.8989 50.9502 23.709ZM82.486 23.709C82.486 15.3335 78.9482 10.5033 73.2011 10.5033C67.4539 10.5033 63.9161 15.3298 63.9161 23.709C63.9161 32.0882 67.4539 37.3379 73.2011 37.3379C78.9482 37.3379 82.486 32.0844 82.486 23.709Z" fill="#F5F5F5"/>
<path id="Vector_4" d="M103.519 0H113.267C114.11 0 114.792 0.684095 114.792 1.53071V35.8866C114.792 36.7332 115.473 37.4173 116.316 37.4173H131.333C132.176 37.4173 132.857 38.1014 132.857 38.948V46.4693C132.857 47.3159 132.176 48 131.333 48H103.519C102.676 48 101.995 47.3159 101.995 46.4693V1.53071C101.995 0.684095 102.676 0 103.519 0Z" fill="#F5F5F5"/>
<path id="Vector_5" d="M170.482 48H142.657C141.818 48 141.141 47.3159 141.141 46.4769V38.9443C141.141 38.1014 141.822 37.4211 142.657 37.4211H157.686C158.525 37.4211 159.203 36.737 159.203 35.898V1.52315C159.203 0.684095 159.884 0 160.719 0H170.478C171.318 0 171.995 0.684095 171.995 1.52315V46.4731C171.995 47.3159 171.314 47.9962 170.478 47.9962L170.482 48ZM159.579 48V12.1058C159.579 11.263 158.898 10.5827 158.062 10.5827H153.948C153.109 10.5827 152.432 9.89858 152.432 9.05953V1.52315C152.428 0.684095 153.109 0 153.945 0H170.478C171.318 0 171.995 0.684095 171.995 1.52315V48" fill="#F5F5F5"/>
</g>
<defs>
<clipPath id="clip0_725_1957">
<rect width="172" height="48" fill="white"/>
</clipPath>
</defs>
</svg>
